<svg xmlns="http://www.w3.org/2000/svg" width="64" height="64" enable-background="new 0 0 64 64" viewBox="0 0 64 64" id="food-dish">
  <path d="M30.266 15.522h3.469c.701 0 1.264-.575 1.264-1.261 0-.698-.563-1.261-1.264-1.261h-3.469c-.701 0-1.264.563-1.264 1.261C29.002 14.947 29.564 15.522 30.266 15.522zM32 19.81c-12.955 0-23.543 10.795-24.175 24.313h48.35C55.543 30.604 44.955 19.81 32 19.81zM5 46.633l4.662 3.175C10.593 50.449 12.419 51 13.556 51h36.889c1.137 0 2.963-.551 3.894-1.192L59 46.633H5z"></path>
</svg>
